:FULLY-SPECIFIED
:FORCE-ALL-JOINTS-BE-3DOF
:DEGREES
97
root 9.28866 16.2583 -23.5145 4.15261 -3.24566 4.30282
lfemur -2.16319 1.4576 -28.9919
ltibia 16.1926 0 0
lfoot -17.2822 6.09412 0
ltoes -2.12652 0 0
rfemur -33.5252 4.26542 12.6842
rtibia 54.9808 0 0
rfoot -20.7635 -14.3289 0
rtoes -13.0917 0 0
lowerback -5.93173 -2.26006 -5.40499
upperback -1.40735 -2.68949 2.26006
thorax 2.22383 -1.38614 5.11587
lowerneck -21.6145 -4.28436 -12.0527
upperneck 20.7357 -4.90013 11.3403
head 10.8418 -1.84047 5.39149
lclavicle -2.82721e-14 -1.38978e-15 0
lhumerus -25.6992 -18.0077 89.6188
lradius 31.927 0 0
lwrist 4.9935 0 0
lhand -12.0248 -24.0224 0
lfingers 7.12502 0 0
lthumb 14.04 5.56662 0
rclavicle -2.82721e-14 -1.38978e-15 0
rhumerus -44.7682 11.1192 -86.8333
rradius 36.8342 0 0
rwrist -20.2449 0 0
rhand -30.4355 -22.257 0
rfingers 7.12502 0 0
rthumb -3.73799 -52.2039 0
98
root 9.28616 16.2493 -23.3855 4.18357 -2.85909 4.40842
lfemur -1.11504 1.38496 -29.0485
ltibia 15.176 0 0
lfoot -17.344 5.77071 0
ltoes -2.25723 0 0
rfemur -34.1079 4.60142 12.2268
rtibia 53.9158 0 0
rfoot -21.0081 -14.3975 0
rtoes -13.4386 0 0
lowerback -6.04605 -2.34186 -5.50053
upperback -1.39597 -2.78617 2.24179
thorax 2.31578 -1.43769 5.13643
lowerneck -21.5361 -4.31753 -12.0939
upperneck 20.8029 -4.93911 11.3022
head 10.8563 -1.86834 5.37996
lclavicle -2.91432e-14 -2.22912e-15 0
lhumerus -25.7184 -18.4406 89.8879
lradius 32.3825 0 0
lwrist 5.2688 0 0
lhand -12.0881 -24.0815 0
lfingers 7.12502 0 0
lthumb 13.9792 5.5129 0
rclavicle -2.91432e-14 -2.22912e-15 0
rhumerus -44.8702 10.9131 -86.6649
rradius 36.6528 0 0
rwrist -20.1422 0 0
rhand -30.4132 -22.251 0
rfingers 7.12502 0 0
rthumb -3.71647 -52.1983 0
99
root 9.28367 16.2402 -23.2564 4.21724 -2.46651 4.51021
lfemur -0.0677805 1.31535 -29.0967
ltibia 14.1541 0 0
lfoot -17.3961 5.44243 0
ltoes -2.39252 0 0
rfemur -34.6731 4.94433 11.7693
rtibia 52.8012 0 0
rfoot -21.2477 -14.4584 0
rtoes -13.7998 0 0
lowerback -6.16372 -2.42344 -5.59345
upperback -1.3843 -2.88273 2.22419
thorax 2.40998 -1.48921 5.15614
lowerneck -21.4556 -4.35185 -12.1364
upperneck 20.8683 -4.97965 11.2653
head 10.8702 -1.89697 5.3688
lclavicle -3.00321e-14 -3.10463e-15 0
lhumerus -25.7491 -18.8757 90.164
lradius 32.8418 0 0
lwrist 5.54673 0 0
lhand -12.1422 -24.1379 0
lfingers 7.12502 0 0
lthumb 13.9271 5.46067 0
rclavicle -3.00321e-14 -3.10463e-15 0
rhumerus -44.9747 10.7072 -86.4961
rradius 36.477 0 0
rwrist -20.0406 0 0
rhand -30.3905 -22.2513 0
rfingers 7.12502 0 0
rthumb -3.6945 -52.199 0
100
root 9.28117 16.2312 -23.1274 4.25341 -2.06894 4.60804
lfemur 0.975818 1.24895 -29.1367
ltibia 13.1314 0 0
lfoot -17.4384 5.11075 0
ltoes -2.53207 0 0
rfemur -35.2206 5.29262 11.3131
rtibia 51.6429 0 0
rfoot -21.4818 -14.5114 0
rtoes -14.1732 0 0
lowerback -6.28411 -2.50461 -5.68352
upperback -1.37242 -2.97892 2.20727
thorax 2.50599 -1.54056 5.17496
lowerneck -21.3733 -4.38726 -12.1801
upperneck 20.9317 -5.02168 11.2298
head 10.8834 -1.92626 5.35805
lclavicle -3.09349e-14 -4.01028e-15 0
lhumerus -25.7911 -19.3117 90.4461
lradius 33.3032 0 0
lwrist 5.82635 0 0
lhand -12.1874 -24.1914 0
lfingers 7.12502 0 0
lthumb 13.8835 5.4101 0
rclavicle -3.09349e-14 -4.01028e-15 0
rhumerus -45.0812 10.5018 -86.3272
rradius 36.3068 0 0
rwrist -19.9402 0 0
rhand -30.3673 -22.2575 0
rfingers 7.12502 0 0
rthumb -3.6721 -52.2056 0
101
root 9.27868 16.2222 -22.9984 4.29193 -1.66739 4.70177
lfemur 2.01299 1.18592 -29.1683
ltibia 12.1124 0 0
lfoot -17.4709 4.77716 0
ltoes -2.67562 0 0
rfemur -35.7502 5.64476 10.8599
rtibia 50.4467 0 0
rfoot -21.7098 -14.5565 0
rtoes -14.557 0 0
lowerback -6.40662 -2.58515 -5.77055
upperback -1.36037 -3.07449 2.19108
thorax 2.60332 -1.59162 5.19285
lowerneck -21.2895 -4.42367 -12.2247
upperneck 20.9928 -5.06509 11.1958
head 10.8958 -1.95617 5.34774
lclavicle -3.18479e-14 -4.94003e-15 0
lhumerus -25.8441 -19.7471 90.7332
lradius 33.7652 0 0
lwrist 6.10674 0 0
lhand -12.2238 -24.2421 0
lfingers 7.12502 0 0
lthumb 13.8483 5.36135 0
rclavicle -3.18479e-14 -4.94003e-15 0
rhumerus -45.1894 10.2975 -86.1585
rradius 36.1421 0 0
rwrist -19.8412 0 0
rhand -30.3437 -22.2694 0
rfingers 7.12502 0 0
rthumb -3.64929 -52.2179 0
102
root 9.27618 16.2131 -22.8693 4.33261 -1.26286 4.79125
lfemur 3.04096 1.12645 -29.1917
ltibia 11.1015 0 0
lfoot -17.4936 4.44312 0
ltoes -2.82284 0 0
rfemur -36.2616 5.99922 10.4112
rtibia 49.2185 0 0
rfoot -21.9315 -14.5935 0
rtoes -14.949 0 0
lowerback -6.53063 -2.66484 -5.85432
upperback -1.34822 -3.16918 2.17565
thorax 2.70152 -1.64223 5.20978
lowerneck -21.2045 -4.46101 -12.2703
upperneck 21.0514 -5.10982 11.1634
head 10.9073 -1.98661 5.33789
lclavicle -3.27673e-14 -5.88783e-15 0
lhumerus -25.9077 -20.1803 91.0245
lradius 34.226 0 0
lwrist 6.38697 0 0
lhand -12.2518 -24.2897 0
lfingers 7.12502 0 0
lthumb 13.8213 5.31459 0
rclavicle -3.27673e-14 -5.88783e-15 0
rhumerus -45.2986 10.0947 -85.9901
rradius 35.9828 0 0
rwrist -19.7436 0 0
rhand -30.3196 -22.2865 0
rfingers 7.12502 0 0
rthumb -3.62608 -52.2354 0
103
root 9.27369 16.2041 -22.7403 4.37528 -0.856369 4.87635
lfemur 4.05697 1.07072 -29.2069
ltibia 10.1033 0 0
lfoot -17.5063 4.11013 0
ltoes -2.97347 0 0
rfemur -36.7547 6.35446 9.9687
rtibia 47.9644 0 0
rfoot -22.1462 -14.6225 0
rtoes -15.3473 0 0
lowerback -6.65551 -2.74347 -5.93462
upperback -1.33604 -3.26276 2.16101
thorax 2.80013 -1.69227 5.22571
lowerneck -21.1185 -4.49922 -12.3167
upperneck 21.1072 -5.15576 11.1328
head 10.918 -2.01753 5.32854
lclavicle -3.36894e-14 -6.84765e-15 0
lhumerus -25.9817 -20.61 91.3188
lradius 34.684 0 0
lwrist 6.66608 0 0
lhand -12.2714 -24.3342 0
lfingers 7.12502 0 0
lthumb 13.8022 5.26998 0
rclavicle -3.36894e-14 -6.84765e-15 0
rhumerus -45.4086 9.89375 -85.8225
rradius 35.8287 0 0
rwrist -19.6475 0 0
rhand -30.2952 -22.3086 0
rfingers 7.12502 0 0
rthumb -3.60249 -52.2579 0
104
root 9.27119 16.1951 -22.6112 4.41975 -0.44893 4.95691
lfemur 5.05826 1.01888 -29.2137
ltibia 9.1222 0 0
lfoot -17.5091 3.77965 0
ltoes -3.12719 0 0
rfemur -37.2292 6.70895 9.53391
rtibia 46.69 0 0
rfoot -22.3535 -14.6432 0
rtoes -15.7498 0 0
lowerback -6.78065 -2.82084 -6.01124
upperback -1.32388 -3.35495 2.14721
thorax 2.89868 -1.74159 5.24061
lowerneck -21.0317 -4.53823 -12.3638
upperneck 21.16 -5.20285 11.1039
head 10.9278 -2.04885 5.31971
lclavicle -3.46103e-14 -7.81344e-15 0
lhumerus -26.0658 -21.0345 91.6152
lradius 35.1375 0 0
lwrist 6.94316 0 0
lhand -12.2828 -24.3753 0
lfingers 7.12502 0 0
lthumb 13.791 5.22769 0
rclavicle -3.46103e-14 -7.81344e-15 0
rhumerus -45.5188 9.69522 -85.6558
rradius 35.6799 0 0
rwrist -19.5532 0 0
rhand -30.2704 -22.3351 0
rfingers 7.12502 0 0
rthumb -3.57853 -52.2849 0
105
root 9.2687 16.1861 -22.4822 4.46584 -0.0415522 5.0328
lfemur 6.04205 0.971131 -29.2124
ltibia 8.16269 0 0
lfoot -17.502 3.45318 0
ltoes -3.28372 0 0
rfemur -37.6848 7.06117 9.10843
rtibia 45.4015 0 0
rfoot -22.5529 -14.6557 0
rtoes -16.1546 0 0
lowerback -6.90544 -2.89674 -6.08397
upperback -1.3118 -3.44552 2.13428
thorax 2.99669 -1.79005 5.25443
lowerneck -20.9445 -4.57795 -12.4115
upperneck 21.2096 -5.25098 11.0771
head 10.9366 -2.0805 5.31144
lclavicle -3.55263e-14 -8.77917e-15 0
lhumerus -26.1597 -21.4526 91.9127
lradius 35.5849 0 0
lwrist 7.21726 0 0
lhand -12.2863 -24.4131 0
lfingers 7.12502 0 0
lthumb 13.7875 5.18788 0
rclavicle -3.55263e-14 -8.77917e-15 0
rhumerus -45.6287 9.49954 -85.4902
rradius 35.5362 0 0
rwrist -19.4606 0 0
rhand -30.2452 -22.3659 0
rfingers 7.12502 0 0
rthumb -3.55423 -52.3161 0
106
root 9.2662 16.177 -22.3531 4.51339 0.364753 5.10387
lfemur 7.00557 0.927636 -29.2029
ltibia 7.22927 0 0
lfoot -17.4849 3.13219 0
ltoes -3.44276 0 0
rfemur -38.1213 7.40957 8.69385
rtibia 44.1046 0 0
rfoot -22.744 -14.6599 0
rtoes -16.5596 0 0
lowerback -7.02926 -2.97094 -6.1526
upperback -1.29987 -3.53422 2.12226
thorax 3.09372 -1.83752 5.26715
lowerneck -20.857 -4.61832 -12.4596
upperneck 21.2557 -5.30008 11.0523
head 10.9444 -2.11241 5.30374
lclavicle -3.64336e-14 -9.73879e-15 0
lhumerus -26.2631 -21.8626 92.2103
lradius 36.0246 0 0
lwrist 7.48746 0 0
lhand -12.2821 -24.4473 0
lfingers 7.12502 0 0
lthumb 13.7913 5.15071 0
rclavicle -3.64336e-14 -9.73879e-15 0
rhumerus -45.738 9.30713 -85.3262
rradius 35.3975 0 0
rwrist -19.37 0 0
rhand -30.2197 -22.4005 0
rfingers 7.12502 0 0
rthumb -3.52959 -52.3511 0
